<mxfile host="app.diagrams.net" agent="Mozilla/5.0 (Windows NT 10.0; Win64; x64) AppleWebKit/537.36 (KHTML, like Gecko) Chrome/131.0.0.0 Safari/537.36" version="25.0.3">
  <diagram name="Page-1" id="HfHC9SoixmkoAjDjxwiE">
    <mxGraphModel dx="546" dy="790" grid="1" gridSize="10" guides="1" tooltips="1" connect="1" arrows="1" fold="1" page="1" pageScale="1" pageWidth="827" pageHeight="1169" math="0" shadow="0">
      <root>
        <mxCell id="0" />
        <mxCell id="1" parent="0" />
        <mxCell id="Cq-C8db3A1HCqR77sQvv-6" value="&amp;lt;&amp;lt;device&amp;gt;&amp;gt;&lt;br&gt;Computer" style="verticalAlign=top;align=center;spacingTop=8;spacingLeft=2;spacingRight=12;shape=cube;size=10;direction=south;fontStyle=0;html=1;whiteSpace=wrap;" vertex="1" parent="1">
          <mxGeometry x="183" y="230" width="307.5" height="200" as="geometry" />
        </mxCell>
        <mxCell id="Cq-C8db3A1HCqR77sQvv-5" value="&amp;lt;&amp;lt;operating system&amp;gt;&amp;gt;&lt;div&gt;Windows/Linux/Mac OS&lt;/div&gt;" style="verticalAlign=top;align=center;spacingTop=8;spacingLeft=2;spacingRight=12;shape=cube;size=10;direction=south;fontStyle=0;html=1;whiteSpace=wrap;" vertex="1" parent="1">
          <mxGeometry x="223.87" y="280" width="210" height="130" as="geometry" />
        </mxCell>
        <mxCell id="Cq-C8db3A1HCqR77sQvv-1" value="Browser" style="shape=module;align=left;spacingLeft=20;align=center;verticalAlign=top;whiteSpace=wrap;html=1;fontStyle=0" vertex="1" parent="1">
          <mxGeometry x="277" y="340" width="100" height="50" as="geometry" />
        </mxCell>
        <mxCell id="Cq-C8db3A1HCqR77sQvv-13" value="&lt;font face=&quot;Helvetica&quot;&gt;&amp;lt;&amp;lt;device&amp;gt;&amp;gt;&lt;br&gt;Load Balancer&lt;/font&gt;" style="verticalAlign=top;align=center;spacingTop=8;spacingLeft=2;spacingRight=12;shape=cube;size=10;direction=south;fontStyle=0;html=1;whiteSpace=wrap;strokeColor=default;" vertex="1" parent="1">
          <mxGeometry x="277" y="584" width="100" height="55" as="geometry" />
        </mxCell>
        <mxCell id="Cq-C8db3A1HCqR77sQvv-17" value="&lt;font face=&quot;Helvetica&quot;&gt;&amp;lt;&amp;lt;device&amp;gt;&amp;gt;&lt;br&gt;Firewall&lt;/font&gt;" style="verticalAlign=top;align=center;spacingTop=8;spacingLeft=2;spacingRight=12;shape=cube;size=10;direction=south;fontStyle=0;html=1;whiteSpace=wrap;" vertex="1" parent="1">
          <mxGeometry x="277" y="480" width="100" height="55" as="geometry" />
        </mxCell>
        <mxCell id="Cq-C8db3A1HCqR77sQvv-19" value="" style="endArrow=none;html=1;rounded=0;entryX=0;entryY=0;entryDx=200;entryDy=158.75;entryPerimeter=0;exitX=0;exitY=0;exitDx=0;exitDy=45;exitPerimeter=0;" edge="1" parent="1" source="Cq-C8db3A1HCqR77sQvv-17" target="Cq-C8db3A1HCqR77sQvv-6">
          <mxGeometry width="50" height="50" relative="1" as="geometry">
            <mxPoint x="540" y="730" as="sourcePoint" />
            <mxPoint x="590" y="680" as="targetPoint" />
          </mxGeometry>
        </mxCell>
        <mxCell id="Cq-C8db3A1HCqR77sQvv-20" value="" style="endArrow=none;html=1;rounded=0;entryX=0;entryY=0;entryDx=55;entryDy=55;entryPerimeter=0;exitX=-0.004;exitY=0.545;exitDx=0;exitDy=0;exitPerimeter=0;" edge="1" parent="1" source="Cq-C8db3A1HCqR77sQvv-13" target="Cq-C8db3A1HCqR77sQvv-17">
          <mxGeometry width="50" height="50" relative="1" as="geometry">
            <mxPoint x="460" y="660" as="sourcePoint" />
            <mxPoint x="510" y="610" as="targetPoint" />
          </mxGeometry>
        </mxCell>
        <mxCell id="Cq-C8db3A1HCqR77sQvv-21" value="&lt;font face=&quot;Helvetica&quot;&gt;&amp;lt;&amp;lt;device&amp;gt;&amp;gt;&lt;br&gt;Load Balancer&lt;/font&gt;" style="verticalAlign=top;align=center;spacingTop=8;spacingLeft=2;spacingRight=12;shape=cube;size=10;direction=south;fontStyle=0;html=1;whiteSpace=wrap;strokeColor=default;" vertex="1" parent="1">
          <mxGeometry x="743.5" y="584" width="100" height="55" as="geometry" />
        </mxCell>
        <mxCell id="Cq-C8db3A1HCqR77sQvv-22" value="&lt;font face=&quot;Helvetica&quot;&gt;&amp;lt;&amp;lt;device&amp;gt;&amp;gt;&lt;br&gt;Firewall&lt;/font&gt;" style="verticalAlign=top;align=center;spacingTop=8;spacingLeft=2;spacingRight=12;shape=cube;size=10;direction=south;fontStyle=0;html=1;whiteSpace=wrap;" vertex="1" parent="1">
          <mxGeometry x="743.5" y="480" width="100" height="55" as="geometry" />
        </mxCell>
        <mxCell id="Cq-C8db3A1HCqR77sQvv-23" value="" style="endArrow=none;html=1;rounded=0;entryX=0;entryY=0;entryDx=200;entryDy=158.75;entryPerimeter=0;exitX=0;exitY=0;exitDx=0;exitDy=45;exitPerimeter=0;" edge="1" parent="1" source="Cq-C8db3A1HCqR77sQvv-22" target="Cq-C8db3A1HCqR77sQvv-44">
          <mxGeometry width="50" height="50" relative="1" as="geometry">
            <mxPoint x="1015.5" y="730" as="sourcePoint" />
            <mxPoint x="798.75" y="430" as="targetPoint" />
          </mxGeometry>
        </mxCell>
        <mxCell id="Cq-C8db3A1HCqR77sQvv-24" value="" style="endArrow=none;html=1;rounded=0;entryX=0;entryY=0;entryDx=55;entryDy=55;entryPerimeter=0;exitX=-0.004;exitY=0.545;exitDx=0;exitDy=0;exitPerimeter=0;" edge="1" parent="1" source="Cq-C8db3A1HCqR77sQvv-21" target="Cq-C8db3A1HCqR77sQvv-22">
          <mxGeometry width="50" height="50" relative="1" as="geometry">
            <mxPoint x="926.5" y="660" as="sourcePoint" />
            <mxPoint x="976.5" y="610" as="targetPoint" />
          </mxGeometry>
        </mxCell>
        <mxCell id="Cq-C8db3A1HCqR77sQvv-26" value="&amp;lt;&amp;lt;device&amp;gt;&amp;gt;&lt;br&gt;Web Server" style="verticalAlign=top;align=center;spacingTop=8;spacingLeft=2;spacingRight=12;shape=cube;size=10;direction=south;fontStyle=0;html=1;whiteSpace=wrap;" vertex="1" parent="1">
          <mxGeometry x="178.62" y="700" width="276.75" height="210" as="geometry" />
        </mxCell>
        <mxCell id="Cq-C8db3A1HCqR77sQvv-27" value="&amp;lt;&amp;lt;operating system&amp;gt;&amp;gt;&lt;div&gt;Linux&lt;/div&gt;" style="verticalAlign=top;align=center;spacingTop=8;spacingLeft=2;spacingRight=12;shape=cube;size=10;direction=south;fontStyle=0;html=1;whiteSpace=wrap;" vertex="1" parent="1">
          <mxGeometry x="223.87" y="760" width="186.25" height="130" as="geometry" />
        </mxCell>
        <mxCell id="Cq-C8db3A1HCqR77sQvv-29" value="Web Application" style="shape=module;align=left;spacingLeft=20;align=center;verticalAlign=top;whiteSpace=wrap;html=1;fontStyle=0" vertex="1" parent="1">
          <mxGeometry x="259.99" y="820" width="100" height="50" as="geometry" />
        </mxCell>
        <mxCell id="Cq-C8db3A1HCqR77sQvv-30" value="" style="endArrow=none;html=1;rounded=0;entryX=0;entryY=0;entryDx=55;entryDy=55;entryPerimeter=0;exitX=0;exitY=0;exitDx=0;exitDy=133.375;exitPerimeter=0;" edge="1" parent="1" source="Cq-C8db3A1HCqR77sQvv-26" target="Cq-C8db3A1HCqR77sQvv-13">
          <mxGeometry width="50" height="50" relative="1" as="geometry">
            <mxPoint x="530" y="970" as="sourcePoint" />
            <mxPoint x="580" y="920" as="targetPoint" />
          </mxGeometry>
        </mxCell>
        <mxCell id="Cq-C8db3A1HCqR77sQvv-32" value="" style="endArrow=none;html=1;rounded=0;entryX=0;entryY=0;entryDx=32.5;entryDy=100;entryPerimeter=0;exitX=0;exitY=0;exitDx=100;exitDy=0;exitPerimeter=0;" edge="1" parent="1" source="Cq-C8db3A1HCqR77sQvv-26" target="Cq-C8db3A1HCqR77sQvv-22">
          <mxGeometry width="50" height="50" relative="1" as="geometry">
            <mxPoint x="455" y="930" as="sourcePoint" />
            <mxPoint x="580" y="690" as="targetPoint" />
            <Array as="points">
              <mxPoint x="560" y="800" />
              <mxPoint x="560" y="513" />
            </Array>
          </mxGeometry>
        </mxCell>
        <mxCell id="Cq-C8db3A1HCqR77sQvv-33" value="&amp;lt;&amp;lt;device&amp;gt;&amp;gt;&lt;br&gt;API server" style="verticalAlign=top;align=center;spacingTop=8;spacingLeft=2;spacingRight=12;shape=cube;size=10;direction=south;fontStyle=0;html=1;whiteSpace=wrap;" vertex="1" parent="1">
          <mxGeometry x="645" y="700" width="374.87" height="290" as="geometry" />
        </mxCell>
        <mxCell id="Cq-C8db3A1HCqR77sQvv-34" value="&amp;lt;&amp;lt;operating system&amp;gt;&amp;gt;&lt;div&gt;Linux&lt;/div&gt;" style="verticalAlign=top;align=center;spacingTop=8;spacingLeft=2;spacingRight=12;shape=cube;size=10;direction=south;fontStyle=0;html=1;whiteSpace=wrap;" vertex="1" parent="1">
          <mxGeometry x="677.5" y="760" width="302.5" height="200" as="geometry" />
        </mxCell>
        <mxCell id="Cq-C8db3A1HCqR77sQvv-35" value="Rest API handler&amp;nbsp;" style="shape=module;align=left;spacingLeft=20;align=center;verticalAlign=top;whiteSpace=wrap;html=1;fontStyle=0" vertex="1" parent="1">
          <mxGeometry x="710" y="820" width="100" height="50" as="geometry" />
        </mxCell>
        <mxCell id="Cq-C8db3A1HCqR77sQvv-36" value="" style="endArrow=none;html=1;rounded=0;entryX=0;entryY=0;entryDx=55;entryDy=55;entryPerimeter=0;exitX=-0.002;exitY=0.617;exitDx=0;exitDy=0;exitPerimeter=0;" edge="1" parent="1" source="Cq-C8db3A1HCqR77sQvv-33" target="Cq-C8db3A1HCqR77sQvv-21">
          <mxGeometry width="50" height="50" relative="1" as="geometry">
            <mxPoint x="530" y="910" as="sourcePoint" />
            <mxPoint x="580" y="860" as="targetPoint" />
          </mxGeometry>
        </mxCell>
        <mxCell id="Cq-C8db3A1HCqR77sQvv-37" value="Business &lt;br&gt;Logic Layer" style="shape=module;align=left;spacingLeft=20;align=center;verticalAlign=top;whiteSpace=wrap;html=1;fontStyle=0" vertex="1" parent="1">
          <mxGeometry x="710" y="890" width="100" height="50" as="geometry" />
        </mxCell>
        <mxCell id="Cq-C8db3A1HCqR77sQvv-38" value="Database Access Layer" style="shape=module;align=left;spacingLeft=20;align=center;verticalAlign=top;whiteSpace=wrap;html=1;fontStyle=0" vertex="1" parent="1">
          <mxGeometry x="843.5" y="820" width="100" height="50" as="geometry" />
        </mxCell>
        <mxCell id="Cq-C8db3A1HCqR77sQvv-39" value="&lt;div style=&quot;&quot;&gt;&lt;span style=&quot;background-color: initial;&quot;&gt;Authentication and Authorization Module&lt;/span&gt;&lt;/div&gt;" style="shape=module;align=center;spacingLeft=20;align=center;verticalAlign=top;whiteSpace=wrap;html=1;fontStyle=0" vertex="1" parent="1">
          <mxGeometry x="833.5" y="885" width="120" height="60" as="geometry" />
        </mxCell>
        <mxCell id="Cq-C8db3A1HCqR77sQvv-40" value="&amp;lt;&amp;lt;device&amp;gt;&amp;gt;&lt;br&gt;Database server" style="verticalAlign=top;align=center;spacingTop=8;spacingLeft=2;spacingRight=12;shape=cube;size=10;direction=south;fontStyle=0;html=1;whiteSpace=wrap;" vertex="1" parent="1">
          <mxGeometry x="1120" y="730" width="276.75" height="210" as="geometry" />
        </mxCell>
        <mxCell id="Cq-C8db3A1HCqR77sQvv-41" value="&amp;lt;&amp;lt;operating system&amp;gt;&amp;gt;&lt;div&gt;Linux&lt;/div&gt;" style="verticalAlign=top;align=center;spacingTop=8;spacingLeft=2;spacingRight=12;shape=cube;size=10;direction=south;fontStyle=0;html=1;whiteSpace=wrap;" vertex="1" parent="1">
          <mxGeometry x="1165.25" y="790" width="186.25" height="130" as="geometry" />
        </mxCell>
        <mxCell id="Cq-C8db3A1HCqR77sQvv-42" value="DBMS &lt;br&gt;Server" style="shape=module;align=left;spacingLeft=20;align=center;verticalAlign=top;whiteSpace=wrap;html=1;fontStyle=0" vertex="1" parent="1">
          <mxGeometry x="1201.37" y="850" width="100" height="50" as="geometry" />
        </mxCell>
        <mxCell id="Cq-C8db3A1HCqR77sQvv-43" value="" style="endArrow=none;html=1;rounded=0;entryX=0;entryY=0;entryDx=110;entryDy=276.75;entryPerimeter=0;exitX=0;exitY=0;exitDx=140;exitDy=0;exitPerimeter=0;" edge="1" parent="1" source="Cq-C8db3A1HCqR77sQvv-33" target="Cq-C8db3A1HCqR77sQvv-40">
          <mxGeometry width="50" height="50" relative="1" as="geometry">
            <mxPoint x="840" y="830" as="sourcePoint" />
            <mxPoint x="890" y="780" as="targetPoint" />
          </mxGeometry>
        </mxCell>
        <mxCell id="Cq-C8db3A1HCqR77sQvv-44" value="&amp;lt;&amp;lt;device&amp;gt;&amp;gt;&lt;br&gt;Smartphone" style="verticalAlign=top;align=center;spacingTop=8;spacingLeft=2;spacingRight=12;shape=cube;size=10;direction=south;fontStyle=0;html=1;whiteSpace=wrap;" vertex="1" parent="1">
          <mxGeometry x="650" y="230" width="307.5" height="200" as="geometry" />
        </mxCell>
        <mxCell id="Cq-C8db3A1HCqR77sQvv-45" value="&amp;lt;&amp;lt;operating system&amp;gt;&amp;gt;&lt;div&gt;Android/IOS&lt;/div&gt;" style="verticalAlign=top;align=center;spacingTop=8;spacingLeft=2;spacingRight=12;shape=cube;size=10;direction=south;fontStyle=0;html=1;whiteSpace=wrap;" vertex="1" parent="1">
          <mxGeometry x="690.87" y="280" width="210" height="130" as="geometry" />
        </mxCell>
        <mxCell id="Cq-C8db3A1HCqR77sQvv-46" value="S&amp;amp;C Client Application" style="shape=module;align=left;spacingLeft=20;align=center;verticalAlign=top;whiteSpace=wrap;html=1;fontStyle=0" vertex="1" parent="1">
          <mxGeometry x="744" y="340" width="100" height="50" as="geometry" />
        </mxCell>
      </root>
    </mxGraphModel>
  </diagram>
</mxfile>
